# xmcd
#
# Track frame offsets:
#	187
#	13492
#	25935
#	40255
#	52215
#	65795
#	81605
#	97275
#	111822
#	122362
#
# Disc length: 1777 seconds
# Revision: 5
# Processed by: cddbd v1.5.2PL0 Copyright (c) Steve Scherf et al.
# Submitted via: dBpowerAMP V12.0
#
DISCID=9506ef0a
DTITLE=George Strait - Beyond the Blue Neon
DYEAR=1989
DGENRE=Country
TTITLE0=Beyond the Blue Neon
TTITLE1=Hollywood Squares
TTITLE2=Overnight Success
TTITLE3=Ace in the Hole
TTITLE4=Leavin's Been Comin' (For a Long, Long Time)
TTITLE5=Baby's Gotten Good at Goodbye
TTITLE6=What's Going on in Your World
TTITLE7=Angel, Angelina
TTITLE8=Too Much of Too Little
TTITLE9=Oh Me, Oh My Sweet Baby
EXTD=
EXTT0=
EXTT1=
EXTT2=
EXTT3=
EXTT4=
EXTT5=
EXTT6=
EXTT7=
EXTT8=
EXTT9=
PLAYORDER=
